<svg xmlns="http://www.w3.org/2000/svg" viewBox="0 0 64 64">
  <defs>
    <linearGradient id="bg" x1="10" y1="8" x2="54" y2="58" gradientUnits="userSpaceOnUse">
      <stop offset="0%" stop-color="#f7f8fb"/>
      <stop offset="100%" stop-color="#dfe5ee"/>
    </linearGradient>
    <linearGradient id="ink" x1="18" y1="18" x2="46" y2="46" gradientUnits="userSpaceOnUse">
      <stop offset="0%" stop-color="#171a20"/>
      <stop offset="100%" stop-color="#394150"/>
    </linearGradient>
  </defs>
  <rect x="6" y="6" width="52" height="52" rx="16" fill="url(#bg)"/>
  <rect x="14" y="14" width="36" height="36" rx="11" fill="url(#ink)"/>
  <path d="M27 21h7.2c5.1 0 8.3 2.4 8.3 6.5 0 2.5-1.2 4.3-3.4 5.2 2.8.7 4.4 2.7 4.4 5.7 0 4.5-3.4 7.1-9.4 7.1H27V21Zm6.5 9.8c2.1 0 3.2-.9 3.2-2.6 0-1.6-1.1-2.5-3.2-2.5h-.8v5.1h.8Zm.5 10c2.4 0 3.7-1 3.7-2.9 0-1.9-1.3-2.9-3.7-2.9h-1.3v5.8H34Z" fill="#f7f8fb"/>
  <path d="M18 18h28" stroke="#f7f8fb" stroke-opacity=".14" stroke-width="1.5" stroke-linecap="round"/>
  <path d="M18 46h28" stroke="#f7f8fb" stroke-opacity=".12" stroke-width="1.5" stroke-linecap="round"/>
</svg>
