<svg width="1440" height="900" viewBox="0 0 1440 900" fill="none" xmlns="http://www.w3.org/2000/svg">
  <defs>
    <linearGradient id="bg" x1="0" y1="0" x2="1440" y2="900" gradientUnits="userSpaceOnUse">
      <stop stop-color="#EEF2F7"/>
      <stop offset="1" stop-color="#DCE4EE"/>
    </linearGradient>
    <linearGradient id="panel" x1="364" y1="180" x2="1076" y2="720" gradientUnits="userSpaceOnUse">
      <stop stop-color="#111827"/>
      <stop offset="1" stop-color="#1F2937"/>
    </linearGradient>
    <linearGradient id="radar" x1="548" y1="258" x2="892" y2="602" gradientUnits="userSpaceOnUse">
      <stop stop-color="#22C55E"/>
      <stop offset="1" stop-color="#38BDF8"/>
    </linearGradient>
    <filter id="shadow" x="290" y="122" width="860" height="656" filterUnits="userSpaceOnUse" color-interpolation-filters="sRGB">
      <feDropShadow dx="0" dy="30" stdDeviation="28" flood-color="#7A8798" flood-opacity="0.18"/>
    </filter>
  </defs>
  <rect width="1440" height="900" fill="url(#bg)"/>
  <g opacity="0.55">
    <rect x="120" y="110" width="1200" height="680" rx="44" fill="#F5F8FB"/>
    <rect x="156" y="146" width="1128" height="608" rx="36" stroke="#D9E0E8" stroke-width="2"/>
  </g>
  <g filter="url(#shadow)">
    <rect x="364" y="180" width="712" height="540" rx="40" fill="url(#panel)"/>
  </g>
  <rect x="412" y="228" width="616" height="48" rx="24" fill="#243244"/>
  <rect x="444" y="244" width="108" height="16" rx="8" fill="#4B5563"/>
  <rect x="580" y="244" width="80" height="16" rx="8" fill="#374151"/>
  <rect x="688" y="244" width="80" height="16" rx="8" fill="#374151"/>
  <rect x="796" y="244" width="172" height="16" rx="8" fill="#2DD4BF" opacity="0.55"/>
  <g transform="translate(720 430)">
    <circle r="172" stroke="#334155" stroke-width="3"/>
    <circle r="122" stroke="#334155" stroke-width="3"/>
    <circle r="72" stroke="#334155" stroke-width="3"/>
    <path d="M0 -172V172M-172 0H172" stroke="#334155" stroke-width="3"/>
    <path d="M0 0L108 -134" stroke="url(#radar)" stroke-width="8" stroke-linecap="round"/>
    <path d="M0 0L166 -46A172 172 0 0 1 108 -134Z" fill="url(#radar)" opacity="0.18"/>
    <circle cx="0" cy="0" r="12" fill="#E5E7EB"/>
    <circle cx="-94" cy="-54" r="10" fill="#22C55E"/>
    <circle cx="88" cy="-92" r="10" fill="#38BDF8"/>
    <circle cx="122" cy="62" r="10" fill="#FBBF24"/>
    <circle cx="-42" cy="116" r="10" fill="#A78BFA"/>
  </g>
  <rect x="492" y="640" width="456" height="14" rx="7" fill="#334155"/>
  <rect x="586" y="672" width="268" height="14" rx="7" fill="#263445"/>
</svg>
