<svg width="1440" height="900" viewBox="0 0 1440 900" fill="none" xmlns="http://www.w3.org/2000/svg">
  <defs>
    <linearGradient id="bg" x1="0" y1="0" x2="1440" y2="900" gradientUnits="userSpaceOnUse">
      <stop stop-color="#EEF2F7"/>
      <stop offset="1" stop-color="#DCE4EE"/>
    </linearGradient>
    <linearGradient id="panel" x1="364" y1="180" x2="1076" y2="720" gradientUnits="userSpaceOnUse">
      <stop stop-color="#1a1a2e"/>
      <stop offset="1" stop-color="#16213e"/>
    </linearGradient>
    <filter id="shadow" x="290" y="122" width="860" height="656" filterUnits="userSpaceOnUse" color-interpolation-filters="sRGB">
      <feDropShadow dx="0" dy="30" stdDeviation="28" flood-color="#7A8798" flood-opacity="0.18"/>
    </filter>
  </defs>
  <rect width="1440" height="900" fill="url(#bg)"/>
  <g opacity="0.55">
    <rect x="120" y="110" width="1200" height="680" rx="44" fill="#F5F8FB"/>
    <rect x="156" y="146" width="1128" height="608" rx="36" stroke="#D9E0E8" stroke-width="2"/>
  </g>
  <g filter="url(#shadow)">
    <rect x="364" y="180" width="712" height="540" rx="40" fill="url(#panel)"/>
  </g>
  <g transform="translate(720, 420)">
    <circle cx="0" cy="0" r="70" fill="none" stroke="#4a90e2" stroke-width="4" opacity="0.8"/>
    <circle cx="0" cy="0" r="50" fill="none" stroke="#4a90e2" stroke-width="3" opacity="0.6"/>
    <circle cx="0" cy="0" r="30" fill="none" stroke="#4a90e2" stroke-width="2" opacity="0.4"/>
    <path d="M0 -25 L0 25" stroke="#50c878" stroke-width="3" stroke-linecap="round"/>
    <circle cx="0" cy="-35" r="5" fill="#50c878"/>
    <text x="0" y="90" text-anchor="middle" fill="#526170" font-family="monospace" font-size="24" opacity="0.7">$ beat play</text>
  </g>
  <rect x="510" y="540" width="420" height="14" rx="7" fill="#D5DEE8"/>
  <rect x="586" y="570" width="268" height="14" rx="7" fill="#DCE4EC"/>
</svg>
