<svg width="1440" height="900" viewBox="0 0 1440 900" fill="none" xmlns="http://www.w3.org/2000/svg">
  <defs>
    <linearGradient id="bg" x1="0" y1="0" x2="1440" y2="900" gradientUnits="userSpaceOnUse">
      <stop stop-color="#EEF3F9"/>
      <stop offset="1" stop-color="#DDE6F1"/>
    </linearGradient>
    <linearGradient id="card" x1="230" y1="150" x2="1210" y2="760" gradientUnits="userSpaceOnUse">
      <stop stop-color="#FBFDFF"/>
      <stop offset="1" stop-color="#EEF3F8"/>
    </linearGradient>
  </defs>
  <rect width="1440" height="900" fill="url(#bg)"/>
  <rect x="160" y="132" width="1120" height="636" rx="44" fill="url(#card)"/>
  <rect x="230" y="206" width="312" height="18" rx="9" fill="#D2DDE9"/>
  <rect x="230" y="244" width="190" height="18" rx="9" fill="#DEE7F0"/>
  <rect x="230" y="318" width="356" height="290" rx="30" fill="#F2F7FB" stroke="#DDE6EF"/>
  <rect x="626" y="318" width="210" height="132" rx="28" fill="#F4F8FC" stroke="#DEE7F1"/>
  <rect x="872" y="318" width="210" height="132" rx="28" fill="#F4F8FC" stroke="#DEE7F1"/>
  <rect x="626" y="476" width="456" height="132" rx="28" fill="#F4F8FC" stroke="#DEE7F1"/>
  <path d="M524 462C524 462 596 382 720 382C844 382 916 462 916 462C916 462 844 542 720 542C596 542 524 462 524 462Z" fill="#E6EEF6" stroke="#8AA3BC" stroke-width="10"/>
  <circle cx="720" cy="462" r="72" fill="#B7C8DA"/>
  <circle cx="720" cy="462" r="34" fill="#5E7894"/>
  <circle cx="744" cy="438" r="14" fill="#F7FBFF" fill-opacity="0.85"/>
  <rect x="662" y="658" width="116" height="18" rx="9" fill="#D3DFEA"/>
  <rect x="690" y="694" width="60" height="18" rx="9" fill="#DEE7F0"/>
</svg>
