<svg width="1440" height="900" viewBox="0 0 1440 900" fill="none" xmlns="http://www.w3.org/2000/svg">
  <defs>
    <linearGradient id="bg" x1="0" y1="0" x2="1440" y2="900" gradientUnits="userSpaceOnUse">
      <stop stop-color="#EEF2F7"/>
      <stop offset="1" stop-color="#DCE4EE"/>
    </linearGradient>
    <linearGradient id="panel" x1="364" y1="180" x2="1076" y2="720" gradientUnits="userSpaceOnUse">
      <stop stop-color="#FAFCFE"/>
      <stop offset="1" stop-color="#EDF2F7"/>
    </linearGradient>
    <filter id="shadow" x="290" y="122" width="860" height="656" filterUnits="userSpaceOnUse" color-interpolation-filters="sRGB">
      <feDropShadow dx="0" dy="30" stdDeviation="28" flood-color="#7A8798" flood-opacity="0.18"/>
    </filter>
  </defs>
  <rect width="1440" height="900" fill="url(#bg)"/>
  <g opacity="0.55">
    <rect x="120" y="110" width="1200" height="680" rx="44" fill="#F5F8FB"/>
    <rect x="156" y="146" width="1128" height="608" rx="36" stroke="#D9E0E8" stroke-width="2"/>
  </g>
  <g filter="url(#shadow)">
    <rect x="364" y="180" width="712" height="540" rx="40" fill="url(#panel)"/>
  </g>
  <rect x="412" y="228" width="616" height="48" rx="24" fill="#E6ECF3"/>
  <rect x="444" y="242" width="140" height="20" rx="10" fill="#CCD6E1"/>
  <rect x="600" y="242" width="140" height="20" rx="10" fill="#CCD6E1"/>
  <rect x="756" y="242" width="120" height="20" rx="10" fill="#D5DEE8"/>
  <g transform="translate(720, 420)">
    <circle cx="0" cy="0" r="60" fill="#526170" opacity="0.08"/>
    <circle cx="0" cy="-20" r="8" fill="#526170" opacity="0.3"/>
    <circle cx="35" cy="10" r="6" fill="#526170" opacity="0.25"/>
    <circle cx="-30" cy="25" r="10" fill="#526170" opacity="0.35"/>
    <circle cx="25" cy="-30" r="5" fill="#526170" opacity="0.2"/>
    <circle cx="-25" cy="-25" r="7" fill="#526170" opacity="0.28"/>
    <circle cx="40" cy="-25" r="4" fill="#526170" opacity="0.18"/>
  </g>
  <rect x="510" y="540" width="420" height="14" rx="7" fill="#D5DEE8"/>
  <rect x="586" y="570" width="268" height="14" rx="7" fill="#DCE4EC"/>
  <text x="720" y="660" text-anchor="middle" fill="#526170" font-family="system-ui, sans-serif" font-size="28" font-weight="600">开发中...</text>
</svg>
