<svg width="1440" height="900" viewBox="0 0 1440 900" fill="none" xmlns="http://www.w3.org/2000/svg">
  <defs>
    <linearGradient id="bg" x1="0" y1="0" x2="1440" y2="900" gradientUnits="userSpaceOnUse">
      <stop stop-color="#EEF2F7"/>
      <stop offset="1" stop-color="#DCE4EE"/>
    </linearGradient>
    <linearGradient id="panel" x1="364" y1="180" x2="1076" y2="720" gradientUnits="userSpaceOnUse">
      <stop stop-color="#FAFCFE"/>
      <stop offset="1" stop-color="#EDF2F7"/>
    </linearGradient>
    <filter id="shadow" x="290" y="122" width="860" height="656" filterUnits="userSpaceOnUse" color-interpolation-filters="sRGB">
      <feDropShadow dx="0" dy="30" stdDeviation="28" flood-color="#7A8798" flood-opacity="0.18"/>
    </filter>
  </defs>
  <rect width="1440" height="900" fill="url(#bg)"/>
  <g opacity="0.55">
    <rect x="120" y="110" width="1200" height="680" rx="44" fill="#F5F8FB"/>
    <rect x="156" y="146" width="1128" height="608" rx="36" stroke="#D9E0E8" stroke-width="2"/>
  </g>
  <g filter="url(#shadow)">
    <rect x="364" y="180" width="712" height="540" rx="40" fill="url(#panel)"/>
  </g>
  <rect x="412" y="228" width="616" height="48" rx="24" fill="#E6ECF3"/>
  <rect x="444" y="242" width="100" height="20" rx="10" fill="#CCD6E1"/>
  <rect x="560" y="242" width="100" height="20" rx="10" fill="#CCD6E1"/>
  <rect x="676" y="242" width="100" height="20" rx="10" fill="#CCD6E1"/>
  <rect x="792" y="242" width="140" height="20" rx="10" fill="#D5DEE8"/>
  <g transform="translate(720, 420)">
    <ellipse cx="0" cy="-30" rx="35" ry="50" fill="#526170" opacity="0.15" stroke="#526170" stroke-width="3"/>
    <line x1="0" y1="20" x2="0" y2="80" stroke="#526170" stroke-width="6" stroke-linecap="round"/>
    <circle cx="0" cy="80" r="8" fill="#526170"/>
    <circle cx="30" cy="40" r="6" fill="#4a90e2"/>
    <circle cx="-30" cy="40" r="6" fill="#4a90e2"/>
  </g>
  <rect x="510" y="540" width="420" height="14" rx="7" fill="#D5DEE8"/>
  <rect x="586" y="570" width="268" height="14" rx="7" fill="#DCE4EC"/>
</svg>
